<?xml version="1.0" encoding="UTF-8" standalone="no"?>
<!DOCTYPE svg PUBLIC "-//W3C//DTD SVG 1.1//EN"
 "http://www.w3.org/Graphics/SVG/1.1/DTD/svg11.dtd">
<!-- Generated by graphviz version 2.43.0 (0)
 -->
<!-- Title: Governance Pages: 1 -->
<svg width="226pt" height="64pt"
 viewBox="0.00 0.00 226.00 64.00" xmlns="http://www.w3.org/2000/svg" xmlns:xlink="http://www.w3.org/1999/xlink">
<g id="graph0" class="graph" transform="scale(1 1) rotate(0) translate(4 60)">
<title>Governance</title>
<!-- Node1 -->
<g id="Node000001" class="node">
<title>Node1</title>
<g id="a_Node000001"><a xlink:title="Status, documentation ownership, and shared operating rules across the ecosystem.">
<polygon fill="#999999" stroke="#666666" points="75,-37 0,-37 0,-18 75,-18 75,-37"/>
<text text-anchor="middle" x="37.5" y="-25" font-family="Helvetica,sans-Serif" font-size="10.00">Governance</text>
</a>
</g>
</g>
<!-- Node2 -->
<g id="Node000002" class="node">
<title>Node2</title>
<g id="a_Node000002"><a xlink:href="group__RoModular__Governance__AIAgents.html" target="_top" xlink:title="Provider&#45;neutral instructions for AI&#45;assisted work across RoModular repositories.">
<polygon fill="white" stroke="#666666" points="218,-56 111,-56 111,-37 218,-37 218,-56"/>
<text text-anchor="middle" x="164.5" y="-44" font-family="Helvetica,sans-Serif" font-size="10.00">AI Agent Guidance</text>
</a>
</g>
</g>
<!-- Node1&#45;&gt;Node2 -->
<g id="edge1" class="edge">
<title>Node1&#45;&gt;Node2</title>
<path fill="none" stroke="black" d="M85.23,-34.6C93.54,-35.87 102.26,-37.19 110.73,-38.48"/>
<polygon fill="black" stroke="black" points="85.74,-31.14 75.33,-33.1 84.69,-38.06 85.74,-31.14"/>
</g>
<!-- Node3 -->
<g id="Node000003" class="node">
<title>Node3</title>
<g id="a_Node000003"><a xlink:href="group__RoModular__Governance__Status.html" target="_top" xlink:title="Maturity definitions and the current ecosystem snapshot.">
<polygon fill="white" stroke="#666666" points="216,-19 113,-19 113,0 216,0 216,-19"/>
<text text-anchor="middle" x="164.5" y="-7" font-family="Helvetica,sans-Serif" font-size="10.00">Repository Status</text>
</a>
</g>
</g>
<!-- Node1&#45;&gt;Node3 -->
<g id="edge2" class="edge">
<title>Node1&#45;&gt;Node3</title>
<path fill="none" stroke="black" d="M85.47,-20.74C94.32,-19.46 103.61,-18.12 112.58,-16.83"/>
<polygon fill="black" stroke="black" points="84.73,-17.31 75.33,-22.2 85.72,-24.24 84.73,-17.31"/>
</g>
</g>
</svg>
