<?xml version="1.0" encoding="UTF-8" standalone="no"?>
<!DOCTYPE svg PUBLIC "-//W3C//DTD SVG 1.1//EN"
 "http://www.w3.org/Graphics/SVG/1.1/DTD/svg11.dtd">
<!-- Generated by graphviz version 2.43.0 (0)
 -->
<!-- Title: Ecosystem Pages: 1 -->
<svg width="190pt" height="64pt"
 viewBox="0.00 0.00 190.00 64.00" xmlns="http://www.w3.org/2000/svg" xmlns:xlink="http://www.w3.org/1999/xlink">
<g id="graph0" class="graph" transform="scale(1 1) rotate(0) translate(4 60)">
<title>Ecosystem</title>
<!-- Node1 -->
<g id="Node000001" class="node">
<title>Node1</title>
<g id="a_Node000001"><a xlink:title="Purpose, boundaries, and dependency architecture of RoModular.">
<polygon fill="#999999" stroke="#666666" points="70,-37 0,-37 0,-18 70,-18 70,-37"/>
<text text-anchor="middle" x="35" y="-25" font-family="Helvetica,sans-Serif" font-size="10.00">Ecosystem</text>
</a>
</g>
</g>
<!-- Node2 -->
<g id="Node000002" class="node">
<title>Node2</title>
<g id="a_Node000002"><a xlink:href="group__RoModular__Ecosystem__Architecture.html" target="_top" xlink:title="Current and planned relationships between RoModular repositories.">
<polygon fill="white" stroke="#666666" points="182,-56 106,-56 106,-37 182,-37 182,-56"/>
<text text-anchor="middle" x="144" y="-44" font-family="Helvetica,sans-Serif" font-size="10.00">Architecture</text>
</a>
</g>
</g>
<!-- Node1&#45;&gt;Node2 -->
<g id="edge1" class="edge">
<title>Node1&#45;&gt;Node2</title>
<path fill="none" stroke="black" d="M80.01,-35.32C88.59,-36.84 97.51,-38.42 105.84,-39.9"/>
<polygon fill="black" stroke="black" points="80.61,-31.87 70.15,-33.56 79.38,-38.76 80.61,-31.87"/>
</g>
<!-- Node3 -->
<g id="Node000003" class="node">
<title>Node3</title>
<g id="a_Node000003"><a xlink:href="group__RoModular__Ecosystem__Overview.html" target="_top" xlink:title="What RoModular is and what belongs at the ecosystem level.">
<polygon fill="white" stroke="#666666" points="175.5,-19 112.5,-19 112.5,0 175.5,0 175.5,-19"/>
<text text-anchor="middle" x="144" y="-7" font-family="Helvetica,sans-Serif" font-size="10.00">Overview</text>
</a>
</g>
</g>
<!-- Node1&#45;&gt;Node3 -->
<g id="edge2" class="edge">
<title>Node1&#45;&gt;Node3</title>
<path fill="none" stroke="black" d="M80.29,-20.05C91.1,-18.23 102.42,-16.33 112.43,-14.64"/>
<polygon fill="black" stroke="black" points="79.43,-16.64 70.15,-21.76 80.59,-23.55 79.43,-16.64"/>
</g>
</g>
</svg>
